<svg width="42" height="42" viewBox="0 0 42 42" fill="none" xmlns="http://www.w3.org/2000/svg">
<path fill-rule="evenodd" clip-rule="evenodd" d="M38 10.5C38 11.3284 37.3284 12 36.5 12H5.5C4.67157 12 4 11.3284 4 10.5C4 9.67157 4.67157 9 5.5 9H36.5C37.3284 9 38 9.67157 38 10.5Z" fill="#10466D"/>
<path fill-rule="evenodd" clip-rule="evenodd" d="M38 20.5C38 21.3284 37.3284 22 36.5 22H5.5C4.67157 22 4 21.3284 4 20.5C4 19.6716 4.67157 19 5.5 19H36.5C37.3284 19 38 19.6716 38 20.5Z" fill="#10466D"/>
<path fill-rule="evenodd" clip-rule="evenodd" d="M38 30.5C38 31.3284 37.3284 32 36.5 32H16.5C15.6716 32 15 31.3284 15 30.5C15 29.6716 15.6716 29 16.5 29H36.5C37.3284 29 38 29.6716 38 30.5Z" fill="#10466D"/>
</svg>
