<svg width="42" height="42" viewBox="0 0 42 42" fill="none" xmlns="http://www.w3.org/2000/svg">
<path fill-rule="evenodd" clip-rule="evenodd" d="M33.1023 9.23241C33.6881 9.8182 33.6881 10.7679 33.1023 11.3537L11.182 33.274C10.5962 33.8598 9.64645 33.8598 9.06066 33.274C8.47487 32.6883 8.47487 31.7385 9.06066 31.1527L30.981 9.23241C31.5668 8.64662 32.5165 8.64662 33.1023 9.23241Z" fill="white"/>
<path fill-rule="evenodd" clip-rule="evenodd" d="M9.0608 9.06053C8.47501 9.64632 8.47501 10.5961 9.0608 11.1819L30.9811 33.1022C31.5669 33.688 32.5166 33.688 33.1024 33.1022C33.6882 32.5164 33.6882 31.5666 33.1024 30.9808L11.1821 9.06053C10.5963 8.47475 9.64658 8.47475 9.0608 9.06053Z" fill="white"/>
</svg>
