<svg width="42" height="42" viewBox="0 0 42 42" fill="none" xmlns="http://www.w3.org/2000/svg">
<path fill-rule="evenodd" clip-rule="evenodd" d="M33.1023 9.23229C33.6881 9.81807 33.6881 10.7678 33.1023 11.3536L11.182 33.2739C10.5962 33.8597 9.64645 33.8597 9.06066 33.2739C8.47487 32.6881 8.47487 31.7384 9.06066 31.1526L30.981 9.23229C31.5668 8.6465 32.5165 8.6465 33.1023 9.23229Z" fill="#10466D"/>
<path fill-rule="evenodd" clip-rule="evenodd" d="M9.0608 9.06066C8.47501 9.64644 8.47501 10.5962 9.0608 11.182L30.9811 33.1023C31.5669 33.6881 32.5166 33.6881 33.1024 33.1023C33.6882 32.5165 33.6882 31.5668 33.1024 30.981L11.1821 9.06066C10.5963 8.47487 9.64658 8.47487 9.0608 9.06066Z" fill="#10466D"/>
</svg>
