<svg width="197" height="30" viewBox="0 0 197 30" fill="none" xmlns="http://www.w3.org/2000/svg">
<path d="M189.616 22.5015L193.549 9.4771H197L191.194 26.3251C191.06 26.6854 190.886 27.0772 190.672 27.5005C190.458 27.9238 190.177 28.3247 189.83 28.703C189.491 29.0903 189.067 29.401 188.559 29.6352C188.05 29.8784 187.435 30 186.713 30C186.427 30 186.151 29.973 185.883 29.9189C185.624 29.8739 185.379 29.8244 185.147 29.7703L185.134 27.2843C185.223 27.2933 185.33 27.3023 185.455 27.3114C185.589 27.3204 185.696 27.3249 185.776 27.3249C186.311 27.3249 186.757 27.2573 187.114 27.1222C187.471 26.9961 187.76 26.7889 187.983 26.5007C188.215 26.2125 188.412 25.8252 188.572 25.3388L189.616 22.5015ZM187.395 9.4771L190.833 20.4208L191.408 23.8526L189.174 24.4336L183.917 9.4771H187.395Z" fill="white"/>
<path d="M179.141 9.4771H182.07V23.6905C182.07 25.0055 181.794 26.1224 181.241 27.0411C180.688 27.9599 179.917 28.6579 178.927 29.1353C177.937 29.6217 176.791 29.8649 175.489 29.8649C174.936 29.8649 174.32 29.7838 173.643 29.6217C172.974 29.4596 172.323 29.1984 171.689 28.8381C171.065 28.4868 170.543 28.0229 170.124 27.4465L171.636 25.5279C172.153 26.1494 172.724 26.6043 173.348 26.8925C173.973 27.1807 174.628 27.3249 175.315 27.3249C176.055 27.3249 176.684 27.1853 177.201 26.906C177.727 26.6358 178.133 26.235 178.418 25.7036C178.704 25.1721 178.846 24.5236 178.846 23.758V12.7872L179.141 9.4771ZM169.308 16.9486V16.6648C169.308 15.557 169.442 14.5482 169.709 13.6384C169.977 12.7197 170.361 11.9316 170.86 11.274C171.359 10.6075 171.966 10.0986 172.679 9.74732C173.393 9.38703 174.2 9.20688 175.101 9.20688C176.037 9.20688 176.835 9.37802 177.495 9.72029C178.164 10.0626 178.722 10.5535 179.168 11.193C179.613 11.8235 179.961 12.5801 180.211 13.4628C180.47 14.3365 180.661 15.3093 180.786 16.3811V17.2863C180.67 18.3312 180.474 19.2859 180.198 20.1506C179.921 21.0153 179.555 21.7629 179.101 22.3934C178.646 23.0239 178.084 23.5103 177.415 23.8526C176.755 24.1949 175.975 24.366 175.074 24.366C174.191 24.366 173.393 24.1814 172.679 23.8121C171.975 23.4428 171.368 22.9248 170.86 22.2583C170.361 21.5918 169.977 20.8082 169.709 19.9074C169.442 18.9977 169.308 18.0114 169.308 16.9486ZM172.532 16.6648V16.9486C172.532 17.6151 172.595 18.2366 172.719 18.8131C172.853 19.3895 173.054 19.8984 173.321 20.3398C173.598 20.7721 173.946 21.1144 174.365 21.3666C174.793 21.6098 175.297 21.7314 175.877 21.7314C176.635 21.7314 177.254 21.5693 177.736 21.245C178.227 20.9207 178.601 20.4839 178.86 19.9345C179.127 19.376 179.315 18.7545 179.422 18.07V15.6245C179.368 15.0931 179.257 14.5977 179.087 14.1383C178.927 13.679 178.708 13.2781 178.432 12.9359C178.155 12.5846 177.807 12.3144 177.388 12.1252C176.969 11.9271 176.474 11.828 175.903 11.828C175.324 11.828 174.82 11.9541 174.392 12.2063C173.964 12.4585 173.611 12.8053 173.335 13.2466C173.067 13.688 172.867 14.2014 172.733 14.7868C172.599 15.3723 172.532 15.9983 172.532 16.6648Z" fill="white"/>
<path d="M163.689 12.2603V24.0958H160.465V9.4771H163.542L163.689 12.2603ZM168.118 9.38253L168.091 12.4089C167.895 12.3729 167.68 12.3459 167.449 12.3279C167.226 12.3099 167.003 12.3009 166.78 12.3009C166.227 12.3009 165.741 12.3819 165.322 12.5441C164.902 12.6972 164.55 12.9224 164.265 13.2196C163.988 13.5078 163.774 13.8591 163.623 14.2734C163.471 14.6878 163.382 15.1516 163.355 15.665L162.619 15.7191C162.619 14.8004 162.708 13.9492 162.887 13.1655C163.065 12.3819 163.333 11.6929 163.689 11.0984C164.055 10.5039 164.51 10.04 165.054 9.70678C165.607 9.37352 166.245 9.20688 166.967 9.20688C167.163 9.20688 167.373 9.2249 167.596 9.26093C167.828 9.29696 168.002 9.33749 168.118 9.38253Z" fill="white"/>
<path d="M152.145 24.366C151.074 24.366 150.107 24.1904 149.242 23.8391C148.385 23.4788 147.654 22.9789 147.048 22.3394C146.45 21.6999 145.991 20.9478 145.67 20.0831C145.349 19.2184 145.188 18.2861 145.188 17.2863V16.7459C145.188 15.602 145.353 14.5662 145.683 13.6384C146.013 12.7107 146.472 11.9181 147.061 11.2605C147.65 10.594 148.345 10.0851 149.148 9.73381C149.951 9.38253 150.82 9.20688 151.757 9.20688C152.791 9.20688 153.696 9.38253 154.472 9.73381C155.248 10.0851 155.89 10.5805 156.399 11.22C156.916 11.8505 157.299 12.6026 157.549 13.4763C157.808 14.35 157.937 15.3138 157.937 16.3676V17.7592H146.753V15.4219H154.753V15.1651C154.735 14.5797 154.619 14.0302 154.405 13.5168C154.2 13.0034 153.884 12.5891 153.456 12.2738C153.027 11.9586 152.457 11.801 151.743 11.801C151.208 11.801 150.731 11.9181 150.312 12.1522C149.902 12.3774 149.558 12.7062 149.282 13.1385C149.005 13.5709 148.791 14.0933 148.64 14.7058C148.497 15.3093 148.426 15.9893 148.426 16.7459V17.2863C148.426 17.9259 148.51 18.5203 148.68 19.0698C148.858 19.6102 149.117 20.0831 149.456 20.4884C149.794 20.8937 150.205 21.2135 150.686 21.4477C151.168 21.6728 151.716 21.7854 152.332 21.7854C153.108 21.7854 153.799 21.6278 154.405 21.3126C155.012 20.9973 155.538 20.5515 155.984 19.975L157.683 21.6368C157.371 22.0962 156.965 22.5375 156.466 22.9609C155.966 23.3752 155.355 23.713 154.633 23.9742C153.919 24.2354 153.09 24.366 152.145 24.366Z" fill="white"/>
<path d="M133.71 12.5981V24.0958H130.486V9.4771H133.523L133.71 12.5981ZM133.135 16.246L132.091 16.2325C132.1 15.1967 132.243 14.2464 132.519 13.3817C132.805 12.517 133.197 11.7739 133.697 11.1524C134.205 10.5309 134.811 10.0536 135.516 9.72029C136.221 9.37802 137.005 9.20688 137.87 9.20688C138.566 9.20688 139.195 9.30596 139.757 9.50412C140.328 9.69327 140.814 10.004 141.215 10.4364C141.625 10.8687 141.937 11.4317 142.151 12.1252C142.365 12.8098 142.472 13.6519 142.472 14.6517V24.0958H139.235V14.6382C139.235 13.9357 139.132 13.3817 138.927 12.9764C138.731 12.5621 138.441 12.2693 138.058 12.0982C137.683 11.9181 137.215 11.828 136.653 11.828C136.1 11.828 135.605 11.9451 135.168 12.1793C134.731 12.4134 134.361 12.7332 134.058 13.1385C133.764 13.5438 133.536 14.0122 133.376 14.5436C133.215 15.0751 133.135 15.6425 133.135 16.246Z" fill="white"/>
<path d="M128.091 21.4071V24.0958H117.75V21.4071H128.091ZM118.7 4.42406V24.0958H115.342V4.42406H118.7ZM126.74 12.6386V15.2867H117.75V12.6386H126.74ZM128.024 4.42406V7.12622H117.75V4.42406H128.024Z" fill="white"/>
<path d="M96.1454 12.5981V24.0958H92.9214V9.4771H95.9581L96.1454 12.5981ZM95.5701 16.246L94.5267 16.2325C94.5356 15.1967 94.6783 14.2464 94.9548 13.3817C95.2402 12.517 95.6326 11.7739 96.132 11.1524C96.6404 10.5309 97.2468 10.0536 97.9514 9.72029C98.6559 9.37802 99.4408 9.20688 100.306 9.20688C101.001 9.20688 101.63 9.30596 102.192 9.50412C102.763 9.69327 103.249 10.004 103.65 10.4364C104.061 10.8687 104.373 11.4317 104.587 12.1252C104.801 12.8098 104.908 13.6519 104.908 14.6517V24.0958H101.67V14.6382C101.67 13.9357 101.568 13.3817 101.363 12.9764C101.166 12.5621 100.877 12.2693 100.493 12.0982C100.119 11.9181 99.6503 11.828 99.0885 11.828C98.5355 11.828 98.0406 11.9451 97.6036 12.1793C97.1665 12.4134 96.7964 12.7332 96.4932 13.1385C96.1989 13.5438 95.9715 14.0122 95.8109 14.5436C95.6504 15.0751 95.5701 15.6425 95.5701 16.246Z" fill="white"/>
<path d="M84.6405 24.366C83.5703 24.366 82.6027 24.1904 81.7376 23.8391C80.8814 23.4788 80.1501 22.9789 79.5436 22.3394C78.9461 21.6999 78.4868 20.9478 78.1657 20.0831C77.8447 19.2184 77.6841 18.2861 77.6841 17.2863V16.7459C77.6841 15.602 77.8491 14.5662 78.1791 13.6384C78.5091 12.7107 78.9684 11.9181 79.557 11.2605C80.1456 10.594 80.8413 10.0851 81.6439 9.73381C82.4466 9.38253 83.3162 9.20688 84.2526 9.20688C85.2871 9.20688 86.1924 9.38253 86.9683 9.73381C87.7442 10.0851 88.3863 10.5805 88.8947 11.22C89.4119 11.8505 89.7954 12.6026 90.0451 13.4763C90.3038 14.35 90.4331 15.3138 90.4331 16.3676V17.7592H79.2493V15.4219H87.2492V15.1651C87.2314 14.5797 87.1154 14.0302 86.9014 13.5168C86.6963 13.0034 86.3796 12.5891 85.9516 12.2738C85.5235 11.9586 84.9527 11.801 84.2392 11.801C83.7041 11.801 83.227 11.9181 82.8078 12.1522C82.3975 12.3774 82.0542 12.7062 81.7777 13.1385C81.5012 13.5709 81.2872 14.0933 81.1356 14.7058C80.9929 15.3093 80.9215 15.9893 80.9215 16.7459V17.2863C80.9215 17.9259 81.0063 18.5203 81.1757 19.0698C81.3541 19.6102 81.6127 20.0831 81.9516 20.4884C82.2905 20.8937 82.7008 21.2135 83.1824 21.4477C83.664 21.6728 84.2125 21.7854 84.8278 21.7854C85.6037 21.7854 86.2949 21.6278 86.9014 21.3126C87.5078 20.9973 88.034 20.5515 88.4799 19.975L90.1789 21.6368C89.8668 22.0962 89.461 22.5375 88.9615 22.9609C88.4621 23.3752 87.8512 23.713 87.1288 23.9742C86.4153 24.2354 85.5859 24.366 84.6405 24.366Z" fill="white"/>
<path d="M69.9518 24.366C68.8816 24.366 67.9139 24.1904 67.0488 23.8391C66.1927 23.4788 65.4613 22.9789 64.8549 22.3394C64.2574 21.6999 63.7981 20.9478 63.477 20.0831C63.1559 19.2184 62.9954 18.2861 62.9954 17.2863V16.7459C62.9954 15.602 63.1604 14.5662 63.4904 13.6384C63.8204 12.7107 64.2797 11.9181 64.8683 11.2605C65.4569 10.594 66.1525 10.0851 66.9552 9.73381C67.7579 9.38253 68.6274 9.20688 69.5639 9.20688C70.5984 9.20688 71.5036 9.38253 72.2795 9.73381C73.0554 10.0851 73.6976 10.5805 74.2059 11.22C74.7232 11.8505 75.1067 12.6026 75.3564 13.4763C75.615 14.35 75.7444 15.3138 75.7444 16.3676V17.7592H64.5606V15.4219H72.5605V15.1651C72.5426 14.5797 72.4267 14.0302 72.2126 13.5168C72.0075 13.0034 71.6909 12.5891 71.2628 12.2738C70.8347 11.9586 70.264 11.801 69.5505 11.801C69.0154 11.801 68.5382 11.9181 68.1191 12.1522C67.7088 12.3774 67.3654 12.7062 67.089 13.1385C66.8125 13.5709 66.5985 14.0933 66.4468 14.7058C66.3042 15.3093 66.2328 15.9893 66.2328 16.7459V17.2863C66.2328 17.9259 66.3175 18.5203 66.487 19.0698C66.6653 19.6102 66.924 20.0831 67.2629 20.4884C67.6018 20.8937 68.012 21.2135 68.4936 21.4477C68.9752 21.6728 69.5237 21.7854 70.1391 21.7854C70.915 21.7854 71.6062 21.6278 72.2126 21.3126C72.8191 20.9973 73.3453 20.5515 73.7912 19.975L75.4902 21.6368C75.178 22.0962 74.7722 22.5375 74.2728 22.9609C73.7734 23.3752 73.1625 23.713 72.4401 23.9742C71.7266 24.2354 70.8972 24.366 69.9518 24.366Z" fill="white"/>
<path d="M57.3901 12.2603V24.0958H54.1661V9.4771H57.243L57.3901 12.2603ZM61.8182 9.38253L61.7914 12.4089C61.5952 12.3729 61.3811 12.3459 61.1493 12.3279C60.9263 12.3099 60.7033 12.3009 60.4804 12.3009C59.9274 12.3009 59.4414 12.3819 59.0222 12.5441C58.603 12.6972 58.2508 12.9224 57.9654 13.2196C57.6889 13.5078 57.4749 13.8591 57.3232 14.2734C57.1716 14.6878 57.0824 15.1516 57.0557 15.665L56.3199 15.7191C56.3199 14.8004 56.4091 13.9492 56.5875 13.1655C56.7658 12.3819 57.0334 11.6929 57.3901 11.0984C57.7558 10.5039 58.2106 10.04 58.7547 9.70678C59.3076 9.37352 59.9453 9.20688 60.6677 9.20688C60.8639 9.20688 61.0735 9.2249 61.2964 9.26093C61.5283 9.29696 61.7022 9.33749 61.8182 9.38253Z" fill="white"/>
<path d="M50.7548 14.0437V21.5558C50.4783 21.925 50.0458 22.3304 49.4571 22.7717C48.8774 23.2041 48.106 23.5779 47.1428 23.8931C46.1796 24.2084 44.9801 24.366 43.5442 24.366C42.3224 24.366 41.2031 24.1588 40.1864 23.7445C39.1697 23.3212 38.2912 22.7042 37.551 21.8935C36.8197 21.0829 36.2533 20.0966 35.852 18.9347C35.4507 17.7637 35.25 16.4307 35.25 14.9355V13.5709C35.25 12.0847 35.4328 10.7606 35.7985 9.5987C36.1731 8.42776 36.7082 7.43697 37.4038 6.62632C38.0995 5.81567 38.9378 5.20319 39.9188 4.78885C40.9088 4.36552 42.028 4.15385 43.2766 4.15385C44.873 4.15385 46.193 4.42406 47.2364 4.96449C48.2888 5.49592 49.1004 6.23451 49.6712 7.18026C50.242 8.12602 50.6032 9.20688 50.7548 10.4229H47.4639C47.3568 9.73831 47.1473 9.12582 46.8351 8.58539C46.5319 8.04496 46.0949 7.62162 45.5241 7.31537C44.9622 7.00012 44.2309 6.84249 43.3301 6.84249C42.5542 6.84249 41.872 6.99111 41.2834 7.28835C40.6947 7.58559 40.2042 8.02244 39.8118 8.5989C39.4283 9.17536 39.1385 9.87792 38.9423 10.7066C38.7461 11.5352 38.6479 12.481 38.6479 13.5438V14.9355C38.6479 16.0163 38.7594 16.9756 38.9824 17.8133C39.2143 18.6509 39.5443 19.358 39.9723 19.9345C40.4093 20.5109 40.94 20.9478 41.5643 21.245C42.1886 21.5332 42.8931 21.6773 43.678 21.6773C44.445 21.6773 45.0737 21.6143 45.5642 21.4882C46.0547 21.3531 46.4427 21.1955 46.7281 21.0153C47.0224 20.8262 47.2498 20.646 47.4104 20.4749V16.5703H43.3569V14.0437H50.7548Z" fill="white"/>
<path fill-rule="evenodd" clip-rule="evenodd" d="M9.10863 14.9995C-8.12669 27.822 2.16315 38.2142 14.8551 20.8041C27.5391 38.2142 37.8289 27.822 20.6014 14.9995C37.8368 2.17895 27.547 -8.21517 14.8551 9.19684C2.15525 -8.20919 -8.1346 2.17895 9.10863 14.9995ZM14.8523 18.75C16.9029 18.75 18.5653 17.0711 18.5653 15C18.5653 12.9289 16.9029 11.25 14.8523 11.25C12.8016 11.25 11.1392 12.9289 11.1392 15C11.1392 17.0711 12.8016 18.75 14.8523 18.75Z" fill="white"/>
</svg>
